<?xml version="1.0" encoding="utf-8"?>
<!-- Generator: Adobe Illustrator 16.0.0, SVG Export Plug-In . SVG Version: 6.00 Build 0)  -->
<!DOCTYPE svg PUBLIC "-//W3C//DTD SVG 1.1//EN" "http://www.w3.org/Graphics/SVG/1.1/DTD/svg11.dtd">
<svg version="1.1" id="Layer_1" xmlns="http://www.w3.org/2000/svg" xmlns:xlink="http://www.w3.org/1999/xlink" x="0px" y="0px"
	 width="559.302px" height="120.763px" viewBox="0 0 559.302 120.763" enable-background="new 0 0 559.302 120.763"
	 xml:space="preserve">
<g>
	<defs>
		<path id="SVGID_1_" d="M50.083,106.393c-11.774-6.84-23.562-13.658-35.354-20.468c-2.006-1.159-2.955-2.836-2.945-5.155
			c0.031-6.795,0.012-13.59,0.012-20.383h0.021c0-6.721,0.045-13.443-0.021-20.164c-0.027-2.599,1.034-4.358,3.262-5.644
			c11.572-6.684,23.128-13.396,34.654-20.155c2.303-1.348,4.398-1.377,6.713-0.032c11.615,6.751,23.258,13.457,34.918,20.129
			c2.244,1.285,3.276,3.071,3.27,5.647c-0.044,13.442-0.057,26.885-0.027,40.329c0.006,2.585-1.037,4.347-3.279,5.632
			c-11.715,6.725-23.403,13.497-35.086,20.277c-1.033,0.6-2.043,0.896-3.051,0.896C52.147,107.303,51.125,106.997,50.083,106.393
			 M50.203,0.851C34.488,9.89,18.773,18.927,3.047,27.944c-2.097,1.2-3.052,2.952-3.047,5.335
			c0.027,18.029,0.051,36.059,0.043,54.089c0,2.452,1.023,4.169,3.139,5.389c15.576,8.987,31.146,17.988,46.695,27.024
			c2.229,1.296,4.291,1.316,6.523,0.019c15.486-8.998,30.986-17.977,46.509-26.913c2.317-1.334,3.351-3.147,3.331-5.822
			c-0.066-8.889-0.025-17.778-0.025-26.666h-0.047c0-9.106-0.008-18.211,0.004-27.317c0.004-2.303-0.945-4.008-2.955-5.161
			C87.492,18.903,71.771,9.875,56.053,0.841C55.076,0.279,54.107,0,53.141,0C52.165,0,51.189,0.285,50.203,0.851"/>
	</defs>
	<clipPath id="SVGID_2_">
		<use xlink:href="#SVGID_1_"  overflow="visible"/>
	</clipPath>
	
		<linearGradient id="SVGID_3_" gradientUnits="userSpaceOnUse" x1="-298.4316" y1="1283.4648" x2="-297.4313" y2="1283.4648" gradientTransform="matrix(53.1116 -91.992 -91.992 -53.1116 133945.2969 40819.9063)">
		<stop  offset="0" style="stop-color:#37BEBC"/>
		<stop  offset="1" style="stop-color:#1E9CD8"/>
	</linearGradient>
	<polygon clip-path="url(#SVGID_2_)" fill="url(#SVGID_3_)" points="-52.441,90.823 26.562,-46.014 158.698,30.274 79.694,167.111 	
		"/>
</g>
<g>
	<defs>
		<path id="SVGID_4_" d="M49.801,20.25c-10.655,6.246-21.342,12.435-32.018,18.646c-0.301,0.175-0.589,0.374-0.997,0.634
			c3.667,2.138,7.214,4.205,10.771,6.278c0.514-0.283,0.988-0.538,1.457-0.804c6.957-3.914,13.927-7.799,20.854-11.761
			c2.274-1.3,4.371-1.271,6.629,0.048c6.143,3.586,12.324,7.11,18.52,10.605c2.205,1.244,3.251,3.008,3.225,5.555
			c-0.074,7.189-0.109,14.38-0.07,21.568c0.014,2.7-1.035,4.573-3.4,5.912c-7.104,4.02-14.153,8.129-21.225,12.205
			c-3.906,2.252-7.813,4.508-11.787,6.801c0.209,0.164,0.334,0.291,0.482,0.379c2.609,1.546,5.208,3.11,7.838,4.621
			c1.813,1.043,3.658,0.979,5.463-0.063c10.452-6.018,20.903-12.037,31.352-18.064c1.884-1.088,2.808-2.742,2.802-4.918
			c-0.033-11.707-0.075-23.414-0.089-35.12c-0.003-2.404-1.034-4.1-3.118-5.29C76.452,31.755,66.422,26.015,56.42,20.227
			c-1.127-0.652-2.209-0.978-3.293-0.978C52.033,19.249,50.938,19.583,49.801,20.25"/>
	</defs>
	<clipPath id="SVGID_5_">
		<use xlink:href="#SVGID_4_"  overflow="visible"/>
	</clipPath>
	
		<linearGradient id="SVGID_6_" gradientUnits="userSpaceOnUse" x1="-301.8213" y1="1281.4668" x2="-300.8213" y2="1281.4668" gradientTransform="matrix(36.5797 -63.3578 -63.3578 -36.5797 92266.4766 27845.1621)">
		<stop  offset="0" style="stop-color:#37BEBC"/>
		<stop  offset="1" style="stop-color:#1E9CD8"/>
	</linearGradient>
	<polygon clip-path="url(#SVGID_5_)" fill="url(#SVGID_6_)" points="-19.037,81.298 35.015,-12.324 125.525,39.932 71.472,133.554 	
		"/>
</g>
<g>
	<defs>
		<path id="SVGID_7_" d="M49.184,39.32c-4.396,2.496-8.776,5.02-13.161,7.536c-1.052,0.603-2.099,1.216-3.315,1.924
			c3.122,1.859,6.086,3.623,9.107,5.423v36.441c3.834-2.205,7.513-4.32,11.189-6.434c0.015-0.252,0.037-0.429,0.037-0.605
			c-0.006-14.02-0.004-28.037-0.021-42.058c-0.002-1.693-0.934-2.703-2.217-2.703C50.305,38.845,49.754,38.997,49.184,39.32"/>
	</defs>
	<clipPath id="SVGID_8_">
		<use xlink:href="#SVGID_7_"  overflow="visible"/>
	</clipPath>
	
		<linearGradient id="SVGID_9_" gradientUnits="userSpaceOnUse" x1="-306.9785" y1="1278.4629" x2="-305.9785" y2="1278.4629" gradientTransform="matrix(24.8235 -42.9956 -42.9956 -24.8235 62620.0039 18621.8574)">
		<stop  offset="0" style="stop-color:#37BEBC"/>
		<stop  offset="1" style="stop-color:#1E9CD8"/>
	</linearGradient>
	<polygon clip-path="url(#SVGID_8_)" fill="url(#SVGID_9_)" points="10.278,77.694 37.791,30.04 75.471,51.795 47.958,99.449 	"/>
</g>
<g>
	<defs>
		<path id="SVGID_10_" d="M170.816,90.313h4.994V48.732h-4.994V90.313z M265.029,90.313h4.994V48.732h-4.994V90.313z M200.488,47.92
			c-1.679,0-3.255,0.277-4.731,0.833c-1.476,0.555-2.767,1.333-3.877,2.334c-1.109,1.002-1.99,2.2-2.64,3.594
			s-0.976,2.931-0.976,4.608c0,1.977,0.326,3.628,0.976,4.955c0.649,1.326,1.509,2.43,2.579,3.309
			c1.068,0.88,2.287,1.591,3.654,2.132c1.367,0.542,2.767,1.022,4.201,1.441c1.437,0.42,2.838,0.84,4.203,1.259
			c1.367,0.419,2.586,0.948,3.655,1.583c1.069,0.636,1.929,1.429,2.578,2.376c0.651,0.947,0.976,2.166,0.976,3.654
			c0,1.003-0.211,1.896-0.631,2.681c-0.419,0.785-0.986,1.455-1.705,2.011c-0.718,0.555-1.535,0.98-2.457,1.279
			c-0.92,0.297-1.881,0.446-2.882,0.446h-3.329c-1.003,0-1.964-0.19-2.884-0.569c-0.921-0.379-1.731-0.892-2.437-1.543
			c-0.703-0.649-1.266-1.414-1.686-2.294c-0.419-0.88-0.629-1.819-0.629-2.821v-2.762l-4.995,0.812v1.667
			c0,1.677,0.347,3.261,1.036,4.749c0.689,1.489,1.611,2.789,2.762,3.898c1.149,1.11,2.489,1.983,4.02,2.619
			c1.529,0.636,3.134,0.955,4.813,0.955h3.329c1.679-0.001,3.281-0.278,4.812-0.834c1.529-0.553,2.877-1.333,4.039-2.334
			c1.166-1.001,2.086-2.2,2.763-3.594c0.676-1.395,1.017-2.931,1.017-4.609c0-1.976-0.326-3.633-0.977-4.974
			c-0.648-1.34-1.508-2.457-2.578-3.35c-1.07-0.894-2.286-1.625-3.654-2.193c-1.367-0.569-2.762-1.077-4.183-1.522
			c-1.421-0.447-2.815-0.88-4.183-1.3c-1.367-0.419-2.586-0.94-3.653-1.563c-1.069-0.623-1.931-1.388-2.58-2.294
			c-0.647-0.906-0.974-2.077-0.974-3.513c0-1.002,0.188-1.894,0.568-2.68c0.379-0.785,0.893-1.454,1.542-2.01
			c0.65-0.555,1.416-0.981,2.294-1.279c0.881-0.298,1.822-0.447,2.823-0.447h2.924c1.001,0,1.943,0.19,2.821,0.569
			c0.88,0.379,1.645,0.893,2.295,1.542c0.65,0.65,1.164,1.415,1.543,2.295s0.568,1.82,0.568,2.822v1.259l4.994-0.813v-0.163
			c0-1.677-0.318-3.261-0.953-4.751c-0.637-1.488-1.51-2.788-2.619-3.897c-1.11-1.111-2.41-1.984-3.898-2.62
			s-3.072-0.954-4.751-0.954H200.488z M237.834,47.92c-1.679,0-3.263,0.318-4.752,0.954c-1.488,0.636-2.787,1.509-3.896,2.62
			c-1.11,1.109-1.983,2.409-2.62,3.897c-0.636,1.49-0.953,3.074-0.953,4.751v18.762c0,1.677,0.317,3.261,0.953,4.749
			c0.637,1.489,1.51,2.789,2.62,3.898c1.109,1.11,2.408,1.983,3.896,2.619c1.489,0.636,3.073,0.955,4.752,0.955h3.329
			c1.679-0.001,3.263-0.319,4.751-0.955c1.489-0.636,2.789-1.509,3.898-2.619c1.111-1.109,1.984-2.409,2.619-3.898
			c0.636-1.488,0.955-3.072,0.955-4.749v-1.667l-4.995-0.812v2.762c0,1.002-0.189,1.941-0.568,2.821
			c-0.38,0.88-0.894,1.645-1.543,2.294c-0.649,0.651-1.414,1.164-2.295,1.543c-0.879,0.379-1.819,0.569-2.822,0.569h-3.329
			c-1.002,0-1.941-0.19-2.822-0.569s-1.645-0.892-2.295-1.543c-0.648-0.649-1.164-1.414-1.543-2.294
			c-0.377-0.88-0.568-1.819-0.568-2.821V59.858c0-1.002,0.191-1.942,0.568-2.822c0.379-0.88,0.895-1.645,1.543-2.295
			c0.65-0.649,1.414-1.163,2.295-1.542s1.82-0.569,2.822-0.569h3.329c1.003,0,1.943,0.19,2.822,0.569
			c0.881,0.379,1.646,0.893,2.295,1.542c0.649,0.65,1.163,1.415,1.543,2.295c0.379,0.88,0.568,1.82,0.568,2.822v2.761l4.995-0.812
			v-1.665c0-1.677-0.319-3.261-0.955-4.751c-0.635-1.488-1.508-2.788-2.619-3.897c-1.109-1.111-2.409-1.984-3.898-2.62
			c-1.488-0.636-3.072-0.954-4.751-0.954H237.834z M291.067,85.846c-0.879-0.379-1.645-0.892-2.294-1.543
			c-0.649-0.649-1.164-1.414-1.542-2.294c-0.38-0.88-0.569-1.819-0.569-2.821V59.858c0-1.002,0.189-1.942,0.569-2.822
			c0.378-0.88,0.893-1.645,1.542-2.295c0.649-0.649,1.415-1.163,2.294-1.542c0.88-0.379,1.82-0.569,2.822-0.569h3.33
			c1.002,0,1.942,0.19,2.821,0.569c0.88,0.379,1.646,0.893,2.294,1.542c0.65,0.65,1.164,1.415,1.543,2.295
			c0.381,0.88,0.57,1.82,0.57,2.822v19.329c0,1.002-0.189,1.941-0.57,2.821c-0.379,0.88-0.893,1.645-1.543,2.294
			c-0.648,0.651-1.414,1.164-2.294,1.543c-0.879,0.379-1.819,0.569-2.821,0.569h-3.33C292.887,86.415,291.947,86.225,291.067,85.846
			 M295.96,47.92c-2.03,0-3.904,0.453-5.625,1.36c-1.719,0.907-3.146,2.132-4.283,3.675l-2.721-4.223h-1.665v58.23h4.995V86.82
			c1.136,1.354,2.504,2.41,4.102,3.168c1.597,0.759,3.329,1.138,5.197,1.138h1.259c1.678-0.001,3.262-0.319,4.751-0.955
			c1.488-0.636,2.788-1.509,3.897-2.619c1.11-1.109,1.983-2.409,2.62-3.898c0.636-1.488,0.954-3.072,0.954-4.749V60.142
			c0-1.677-0.318-3.261-0.954-4.751c-0.637-1.488-1.51-2.788-2.62-3.897c-1.109-1.111-2.409-1.984-3.897-2.62
			c-1.489-0.636-3.073-0.954-4.751-0.954H295.96z M342.715,59.858c0-1.002,0.189-1.942,0.569-2.822
			c0.379-0.88,0.894-1.645,1.544-2.295c0.649-0.649,1.414-1.163,2.293-1.542c0.88-0.379,1.821-0.569,2.822-0.569h3.33
			c1.002,0,1.943,0.19,2.823,0.569c0.879,0.379,1.644,0.893,2.293,1.542c0.65,0.65,1.165,1.415,1.544,2.295s0.567,1.82,0.567,2.822
			v6.172h-17.786V59.858z M349.944,47.92c-1.678,0-3.262,0.318-4.751,0.954c-1.488,0.636-2.787,1.509-3.898,2.62
			c-1.108,1.109-1.981,2.409-2.618,3.897c-0.637,1.49-0.954,3.074-0.954,4.751v18.762c0,1.677,0.317,3.261,0.954,4.749
			c0.637,1.489,1.51,2.789,2.618,3.898c1.111,1.11,2.41,1.983,3.898,2.619c1.489,0.636,3.073,0.955,4.751,0.955h3.33
			c1.68-0.001,3.263-0.319,4.751-0.955c1.489-0.636,2.788-1.509,3.897-2.619c1.111-1.109,1.983-2.409,2.619-3.898
			c0.637-1.488,0.954-3.072,0.954-4.749v-1.667l-4.994-0.812v2.762c0,1.002-0.188,1.941-0.567,2.821s-0.894,1.645-1.544,2.294
			c-0.649,0.651-1.414,1.164-2.293,1.543c-0.88,0.379-1.821,0.569-2.823,0.569h-3.33c-1.001,0-1.941-0.19-2.822-0.569
			c-0.879-0.379-1.644-0.892-2.293-1.543c-0.65-0.649-1.165-1.414-1.544-2.294c-0.38-0.88-0.569-1.819-0.569-2.821v-9.26h22.78
			v-9.786c0-1.677-0.317-3.261-0.954-4.751c-0.636-1.488-1.508-2.788-2.619-3.897c-1.109-1.111-2.408-1.984-3.897-2.62
			c-1.488-0.636-3.072-0.954-4.751-0.954H349.944z M140.799,85.846c-0.881-0.379-1.645-0.892-2.295-1.543
			c-0.649-0.649-1.164-1.414-1.543-2.294s-0.569-1.819-0.569-2.821V59.858c0-1.002,0.19-1.942,0.569-2.822s0.894-1.645,1.543-2.295
			c0.65-0.649,1.414-1.163,2.295-1.542c0.879-0.379,1.819-0.569,2.82-0.569h3.33c1.002,0,1.943,0.19,2.823,0.569
			s1.644,0.893,2.295,1.542c0.649,0.65,1.162,1.415,1.541,2.295s0.569,1.82,0.569,2.822v19.329c0,1.002-0.19,1.941-0.569,2.821
			s-0.892,1.645-1.541,2.294c-0.651,0.651-1.415,1.164-2.295,1.543s-1.821,0.569-2.823,0.569h-3.33
			C142.619,86.415,141.678,86.225,140.799,85.846 M154.178,32.084v20.139c-1.137-1.352-2.504-2.408-4.101-3.165
			c-1.598-0.759-3.331-1.138-5.198-1.138h-1.26c-1.677,0-3.261,0.318-4.75,0.954c-1.488,0.636-2.787,1.509-3.898,2.62
			c-1.109,1.109-1.982,2.409-2.618,3.897c-0.638,1.49-0.955,3.074-0.955,4.751v18.762c0,1.677,0.317,3.261,0.955,4.749
			c0.636,1.489,1.509,2.789,2.618,3.898c1.111,1.11,2.41,1.983,3.898,2.619c1.489,0.636,3.073,0.955,4.75,0.955h1.26
			c2.031-0.001,3.897-0.455,5.604-1.36c1.706-0.907,3.126-2.133,4.264-3.677l2.762,4.224h1.664V32.084H154.178z M170.41,38.743
			h5.808v-6.659h-5.808V38.743z M264.624,38.743h5.807v-6.659h-5.807V38.743z M321.084,90.313h4.994V32.084h-4.994V90.313z
			 M377.645,31.539v61.594h9.726V67.101h21.819v-9.489h-21.819V41.027h26.948v-9.488H377.645z M419.493,93.133h9.729V31.538h-9.729
			V93.133z M522.389,31.539v9.488h13.593v52.105h9.728V41.027h13.593v-9.488H522.389z M448.178,59.321V41.028
			c3.487,0,6.976-0.011,10.464,0c2.562,0.021,4.881,1.544,6.01,3.731c1.139,2.21,0.753,5.049,0.745,7.766
			c-0.032,3.668-3.211,6.743-6.709,6.796c-1.182,0.01-2.364,0.012-3.546,0.012C452.821,59.333,450.5,59.321,448.178,59.321
			 M438.45,31.539v61.594h9.729V68.809h3.471l15.461,24.324h11.372L462.731,68.35l0.06-0.014c3.209-0.808,6.138-2.606,8.303-5.082
			c3.985-4.556,4.253-10.453,4.017-16.111c-0.372-8.907-8.119-15.532-16.171-15.604c-2.362-0.007-4.724-0.01-7.086-0.01
			C447.386,31.529,442.917,31.539,438.45,31.539 M493.957,31.492c-7.529,2.383-11.407,9.667-11.391,16.741
			c0.029,4.056,1.313,8.079,4.019,11.028c2.725,2.967,6.415,4.611,10.127,6.066c3.993,1.553,8.781,2.617,11.413,6.059
			c1.474,1.928,1.396,4.11,1.39,6.297c-0.021,2.113-1.152,4.058-2.809,5.308c-2.296,1.733-5.189,1.496-8.016,1.487
			c-2.567-0.021-5.029-1.459-6.313-3.647c-1.483-2.531-0.88-5.884-0.88-8.999l-9.728,1.584v4.227
			c0.022,6.313,4.017,12.063,9.559,14.686c3.568,1.689,7.449,1.611,11.327,1.599c6.107-0.053,11.926-3.647,14.758-8.987
			c1.535-2.893,1.833-5.988,1.826-9.138c-0.03-3.833-1.155-7.663-3.563-10.6c-2.739-3.339-6.731-5.225-10.702-6.863
			c-3.811-1.561-9.041-2.77-11.608-6.428c-1.054-1.503-1.079-3.2-1.074-4.923c0.022-2.573,1.543-4.88,3.735-6.01
			c1.881-0.97,4.076-0.752,6.332-0.745c2.557,0.021,4.929,1.541,6.048,3.771c1.126,2.241,0.707,5.222,0.707,8.04l9.729-1.583v-3.43
			c-0.023-9.16-7.845-16.213-16.188-16.287c-0.684-0.002-1.368-0.01-2.05-0.01C498.329,30.734,496.079,30.819,493.957,31.492"/>
	</defs>
	<clipPath id="SVGID_11_">
		<use xlink:href="#SVGID_10_"  overflow="visible"/>
	</clipPath>
	
		<linearGradient id="SVGID_12_" gradientUnits="userSpaceOnUse" x1="-293.9824" y1="1286.0703" x2="-292.9824" y2="1286.0703" gradientTransform="matrix(130.5434 -226.1079 -226.1079 -130.5434 329452.5938 101590.4922)">
		<stop  offset="0" style="stop-color:#37BEBC"/>
		<stop  offset="1" style="stop-color:#1E9CD8"/>
	</linearGradient>
	<polygon clip-path="url(#SVGID_11_)" fill="url(#SVGID_12_)" points="98.39,87.905 238.374,-154.554 592.31,49.791 452.326,292.25 
			"/>
</g>
<g>
</g>
<g>
</g>
<g>
</g>
<g>
</g>
<g>
</g>
<g>
</g>
</svg>
